<?xml version="1.0" encoding="utf-8"?>
<!-- Generator: Adobe Illustrator 21.1.0, SVG Export Plug-In . SVG Version: 6.00 Build 0)  -->
<svg version="1.1" id="Layer_2" xmlns="http://www.w3.org/2000/svg" xmlns:xlink="http://www.w3.org/1999/xlink" x="0px" y="0px"
	 viewBox="0 0 283.5 58.1" style="enable-background:new 0 0 283.5 58.1;" xml:space="preserve">
<style type="text/css">
	.st0{fill:url(#SVGID_1_);}
</style>
<g>
	<path d="M14.2,0c2.1,0,3.5,1.2,3.5,3c0,1.8-1.3,3-3.1,3c-2.8,0-3.5,0.8-3.5,3.5v2.1c0,0.2,0.1,0.4,0.4,0.4h3.3
		c1.7,0,2.8,1.1,2.8,2.7c0,1.6-1.1,2.6-2.8,2.6h-3.3c-0.2,0-0.4,0.1-0.4,0.4V38c0,2.2-1.5,3.6-3.4,3.6c-2,0-3.4-1.3-3.4-3.6V17.7
		c0-0.2-0.2-0.4-0.4-0.4h-1c-1.7,0-2.8-1-2.8-2.6C0,13.1,1.1,12,2.8,12h1c0.2,0,0.4-0.1,0.4-0.4V9.7c0-7.1,3-9.7,9.7-9.7H14.2z"/>
	<path d="M40.6,38.6L40.6,38.6c-1.6,2.1-4.3,3.4-7.7,3.4c-6.3,0-10-4.6-10-10.9V15.3c0-2.2,1.4-3.6,3.4-3.6s3.4,1.3,3.4,3.6v14.2
		c0,3.8,1.7,6.4,5.4,6.4c3.6,0,5.5-2.6,5.5-6.4V15.3c0-2.2,1.4-3.6,3.4-3.6c2,0,3.4,1.3,3.4,3.6V38c0,2.2-1.4,3.6-3.4,3.6
		C42,41.6,40.9,40.3,40.6,38.6z"/>
	<path d="M55.5,17.3c-1.7,0-2.8-1-2.8-2.6c0-1.6,1.1-2.7,2.8-2.7h0.9c0.2,0,0.4-0.1,0.4-0.4V6.3c0-2.2,1.5-3.6,3.5-3.6
		c1.9,0,3.3,1.3,3.3,3.6v5.3c0,0.2,0.1,0.4,0.4,0.4H67c1.7,0,2.8,1.1,2.8,2.7c0,1.6-1.1,2.6-2.8,2.6h-3.1c-0.2,0-0.4,0.1-0.4,0.4
		v14.6c0,2.4,0.7,3.1,3.2,3.3c2.1,0.2,3.1,1.5,3.1,3c0,1.7-1.2,3-3.7,3h-0.5c-6.4,0-8.8-2.9-8.8-9.2V17.7c0-0.2-0.2-0.4-0.4-0.4
		H55.5z"/>
	<path d="M93.2,38.6L93.2,38.6C91.7,40.7,89,42,85.5,42c-6.3,0-10-4.6-10-10.9V15.3c0-2.2,1.4-3.6,3.4-3.6c2,0,3.4,1.3,3.4,3.6v14.2
		c0,3.8,1.7,6.4,5.4,6.4c3.6,0,5.5-2.6,5.5-6.4V15.3c0-2.2,1.4-3.6,3.4-3.6c2,0,3.4,1.3,3.4,3.6V38c0,2.2-1.4,3.6-3.4,3.6
		C94.6,41.6,93.5,40.3,93.2,38.6z"/>
	<path d="M115.7,15.4L115.7,15.4c1.3-2.2,4-4.1,7.5-4.1c1.6,0,2.8,0.4,3.7,0.8c1.3,0.7,1.8,1.6,1.8,2.8c0,2-1.3,3.5-3.3,3.5
		c-0.5,0-1-0.1-1.6-0.3c-0.9-0.2-1.8-0.5-2.7-0.5c-3.8,0-5.3,3-5.3,7.4v13c0,2.2-1.4,3.6-3.4,3.6c-1.9,0-3.4-1.3-3.4-3.6V15.3
		c0-2.2,1.4-3.6,3.4-3.6c2,0,3.4,1.3,3.4,3.6V15.4z"/>
	<path d="M132.8,33.8c-0.6-1.9-1-4.1-1-7.2c0-3,0.4-5.3,1-7.2c1.6-5.1,6.1-8.1,12-8.1c6,0,10.4,3.1,12,8.1c0.6,1.9,1,4.3,1,7
		c0,1.4-0.9,2.4-2.4,2.4H139c-0.2,0-0.4,0.1-0.4,0.4c0,0.9,0.2,1.6,0.4,2.2c1,2.9,3.3,4.4,6.6,4.4c2.5,0,4.1-0.7,6-2
		c0.8-0.5,1.6-1,2.5-1c1.8,0,2.9,1.2,2.9,2.9c0,1.2-0.5,1.9-1.4,2.7C153,40.6,149.8,42,145,42C138.8,42,134.4,38.9,132.8,33.8z
		 M150.5,20.9c-0.8-2.4-3-3.8-5.7-3.8c-2.8,0-5,1.4-5.8,3.8c-0.2,0.7-0.4,1.5-0.4,2.5c0,0.2,0.1,0.4,0.4,0.4h11.5
		c0.2,0,0.4-0.1,0.4-0.4C150.8,22.4,150.7,21.6,150.5,20.9z"/>
	<path d="M165.8,41.3c-1.9,0-3.1-1.2-3.1-3c0-1.3,0.7-2.6,2.1-4.2l13.5-16V18h-11.7c-1.9,0-3.1-1.3-3.1-3c0-1.7,1.2-3,3.1-3h17.3
		c1.9,0,3.1,1.2,3.1,3c0,1.3-0.7,2.6-2.1,4.3l-13.3,16v0.1h12.3c1.9,0,3.1,1.3,3.1,3c0,1.7-1.2,3-3.1,3H165.8z"/>
	<path d="M193,33.9c-0.7-2.1-1-4-1-7.2c0-3.2,0.3-5.2,1-7.2c1.6-5.1,6.1-8.1,12.1-8.1c5.9,0,10.4,3,12,8.1c0.7,2.1,1,4,1,7.2
		c0,3.2-0.3,5.2-1,7.2c-1.6,5.1-6.1,8.1-12,8.1C199.1,42,194.6,39,193,33.9z M210.5,32.1c0.5-1.5,0.6-2.9,0.6-5.4
		c0-2.5-0.1-3.8-0.6-5.4c-0.9-2.4-2.7-3.8-5.5-3.8c-2.7,0-4.7,1.4-5.5,3.8c-0.5,1.6-0.6,2.9-0.6,5.4c0,2.5,0.1,3.9,0.6,5.4
		c0.9,2.4,2.8,3.8,5.5,3.8C207.8,35.9,209.7,34.5,210.5,32.1z"/>
	<path d="M232.2,14.8c1.5-2.1,4.3-3.4,7.7-3.4c6.3,0,10.1,4.6,10.1,10.9V38c0,2.2-1.4,3.6-3.4,3.6c-2,0-3.4-1.3-3.4-3.6V23.8
		c0-3.8-1.8-6.4-5.5-6.4c-3.6,0-5.6,2.6-5.6,6.4V38c0,2.2-1.4,3.6-3.4,3.6c-2,0-3.4-1.3-3.4-3.6V15.3c0-2.2,1.4-3.6,3.4-3.6
		C230.7,11.7,231.8,13,232.2,14.8L232.2,14.8z"/>
	<path d="M258.1,33.8c-0.6-1.9-1-4.1-1-7.2c0-3,0.4-5.3,1-7.2c1.6-5.1,6.1-8.1,12-8.1c6,0,10.4,3.1,12,8.1c0.6,1.9,1,4.3,1,7
		c0,1.4-0.9,2.4-2.4,2.4h-16.3c-0.2,0-0.4,0.1-0.4,0.4c0,0.9,0.2,1.6,0.4,2.2c1,2.9,3.3,4.4,6.6,4.4c2.5,0,4.1-0.7,6-2
		c0.8-0.5,1.6-1,2.5-1c1.8,0,2.9,1.2,2.9,2.9c0,1.2-0.5,1.9-1.4,2.7c-2.6,2.1-5.8,3.5-10.6,3.5C264.1,42,259.7,38.9,258.1,33.8z
		 M275.8,20.9c-0.8-2.4-3-3.8-5.7-3.8c-2.8,0-5,1.4-5.8,3.8c-0.2,0.7-0.4,1.5-0.4,2.5c0,0.2,0.1,0.4,0.4,0.4h11.5
		c0.2,0,0.4-0.1,0.4-0.4C276.1,22.4,276,21.6,275.8,20.9z"/>
</g>
<linearGradient id="SVGID_1_" gradientUnits="userSpaceOnUse" x1="0" y1="53.6611" x2="157.6797" y2="53.6611">
	<stop  offset="0" style="stop-color:#C3D1D4"/>
	<stop  offset="0.125" style="stop-color:#7BAAB5"/>
	<stop  offset="0.25" style="stop-color:#7FB47B"/>
	<stop  offset="0.375" style="stop-color:#3F5AA6"/>
	<stop  offset="0.5" style="stop-color:#C83C84"/>
	<stop  offset="0.625" style="stop-color:#D63A2F"/>
	<stop  offset="0.75" style="stop-color:#F9B036"/>
	<stop  offset="0.875" style="stop-color:#909768"/>
	<stop  offset="1" style="stop-color:#909768"/>
</linearGradient>
<rect y="49.4" class="st0" width="157.7" height="8.6"/>
<g>
	<path d="M165.7,57.1v-6c0,0,0-0.1-0.1-0.1h-1.5c-0.6,0-0.9-0.3-0.9-0.8c0-0.5,0.4-0.8,0.9-0.8h4.9c0.6,0,0.9,0.3,0.9,0.8
		c0,0.5-0.4,0.8-0.9,0.8h-1.5c0,0-0.1,0-0.1,0.1v6c0,0.6-0.4,1-0.9,1C166.1,58,165.7,57.7,165.7,57.1z"/>
	<path d="M171.6,50.2c0-0.5,0.3-0.8,0.8-0.8h4.2c0.5,0,0.9,0.3,0.9,0.8c0,0.5-0.3,0.8-0.9,0.8h-3c-0.1,0-0.1,0-0.1,0.1v1.7
		c0,0.1,0,0.1,0.1,0.1h2.4c0.5,0,0.8,0.3,0.8,0.8c0,0.5-0.3,0.8-0.8,0.8h-2.4c-0.1,0-0.1,0-0.1,0.1v1.8c0,0,0,0.1,0.1,0.1h3
		c0.5,0,0.9,0.3,0.9,0.8c0,0.5-0.3,0.8-0.9,0.8h-4.2c-0.5,0-0.8-0.3-0.8-0.8V50.2z"/>
	<path d="M179.2,53.7c0-1.3,0.1-1.8,0.2-2.3c0.5-1.4,1.6-2.1,3.1-2.1c1.3,0,2.2,0.6,2.7,1.4c0.1,0.2,0.2,0.4,0.2,0.6
		c0,0.5-0.4,0.8-0.8,0.8c-0.3,0-0.6-0.1-0.8-0.5c-0.3-0.4-0.6-0.6-1.2-0.6c-0.7,0-1.1,0.4-1.3,0.9c-0.1,0.3-0.1,0.6-0.1,1.8
		c0,1.2,0,1.5,0.1,1.8c0.2,0.6,0.6,0.9,1.3,0.9c0.5,0,0.8-0.2,1.2-0.6c0.3-0.4,0.5-0.5,0.8-0.5c0.5,0,0.8,0.3,0.8,0.8
		c0,0.2-0.1,0.4-0.2,0.6c-0.4,0.8-1.4,1.4-2.7,1.4c-1.5,0-2.6-0.7-3.1-2.1C179.2,55.4,179.2,55,179.2,53.7z"/>
	<path d="M187.3,50.3c0-0.6,0.4-1,0.9-1c0.5,0,0.9,0.4,0.9,1v2.4c0,0.1,0,0.1,0.1,0.1h2.8c0,0,0.1,0,0.1-0.1v-2.4c0-0.6,0.4-1,0.9-1
		c0.5,0,0.9,0.4,0.9,1v6.8c0,0.6-0.4,1-0.9,1c-0.5,0-0.9-0.4-0.9-1v-2.5c0-0.1,0-0.1-0.1-0.1h-2.8c-0.1,0-0.1,0-0.1,0.1v2.5
		c0,0.6-0.4,1-0.9,1c-0.5,0-0.9-0.4-0.9-1V50.3z"/>
	<path d="M196.2,50.4c0-0.7,0.4-1.1,1-1.1c0.5,0,0.9,0.3,1.2,0.9l2.6,4.7h0v-4.7c0-0.6,0.3-0.9,0.8-0.9c0.5,0,0.8,0.3,0.8,0.9v6.7
		c0,0.7-0.4,1.1-1,1.1c-0.5,0-0.9-0.3-1.2-0.9l-2.6-4.7h-0.1v4.7c0,0.6-0.3,0.9-0.8,0.9c-0.5,0-0.8-0.3-0.8-0.9V50.4z"/>
	<path d="M205.2,56c-0.2-0.6-0.2-1.1-0.2-2.4c0-1.3,0-1.7,0.2-2.4c0.5-1.4,1.6-2.1,3.1-2.1c1.5,0,2.7,0.7,3.1,2.1
		c0.2,0.6,0.2,1.1,0.2,2.4c0,1.3,0,1.7-0.2,2.4c-0.5,1.4-1.6,2.1-3.1,2.1C206.8,58.1,205.6,57.4,205.2,56z M209.7,55.5
		c0.1-0.3,0.1-0.7,0.1-1.9s0-1.5-0.1-1.9c-0.2-0.6-0.6-0.9-1.4-0.9s-1.2,0.4-1.4,0.9c-0.1,0.3-0.1,0.7-0.1,1.9s0,1.5,0.1,1.9
		c0.2,0.6,0.6,0.9,1.4,0.9S209.5,56.1,209.7,55.5z"/>
	<path d="M213.7,50.3c0-0.6,0.4-1,0.9-1c0.5,0,0.9,0.4,0.9,1v6c0,0.1,0,0.1,0.1,0.1h3.1c0.6,0,0.9,0.3,0.9,0.8
		c0,0.5-0.4,0.8-0.9,0.8h-4.1c-0.6,0-0.9-0.4-0.9-0.9V50.3z"/>
	<path d="M221,56c-0.2-0.6-0.2-1.1-0.2-2.4c0-1.3,0.1-1.7,0.2-2.4c0.5-1.4,1.6-2.1,3.1-2.1c1.5,0,2.7,0.7,3.1,2.1
		c0.2,0.6,0.2,1.1,0.2,2.4c0,1.3,0,1.7-0.2,2.4c-0.5,1.4-1.6,2.1-3.1,2.1C222.7,58.1,221.5,57.4,221,56z M225.5,55.5
		c0.1-0.3,0.1-0.7,0.1-1.9s0-1.5-0.1-1.9c-0.2-0.6-0.6-0.9-1.4-0.9c-0.7,0-1.2,0.4-1.4,0.9c-0.1,0.3-0.1,0.7-0.1,1.9s0,1.5,0.1,1.9
		c0.2,0.6,0.6,0.9,1.4,0.9C224.9,56.5,225.3,56.1,225.5,55.5z"/>
	<path d="M229.4,53.7c0-1.3,0.1-1.7,0.2-2.4c0.4-1.4,1.6-2.1,3.2-2.1c1.4,0,2.4,0.6,2.8,1.3c0.1,0.2,0.2,0.4,0.2,0.6
		c0,0.5-0.4,0.8-0.8,0.8c-0.3,0-0.6-0.1-0.8-0.5c-0.3-0.5-0.7-0.6-1.3-0.6c-0.7,0-1.2,0.4-1.4,1c-0.1,0.3-0.1,0.7-0.1,1.8
		s0,1.5,0.1,1.8c0.2,0.6,0.7,0.9,1.4,0.9c0.7,0,1.2-0.3,1.4-0.9c0.1-0.2,0.1-0.5,0.1-0.8c0-0.1,0-0.1-0.1-0.1h-0.6
		c-0.5,0-0.8-0.3-0.8-0.7c0-0.4,0.3-0.7,0.8-0.7h1.8c0.5,0,0.7,0.3,0.7,0.7V54c0,0.8-0.1,1.5-0.2,1.9c-0.4,1.4-1.6,2.2-3.1,2.2
		c-1.5,0-2.7-0.7-3.2-2.1C229.4,55.4,229.4,54.9,229.4,53.7z"/>
	<path d="M239.8,57.1v-2.5l-2.2-3.9c-0.1-0.2-0.1-0.3-0.1-0.5c0-0.5,0.4-0.8,0.9-0.8c0.4,0,0.6,0.2,0.8,0.6l1.6,2.9h0l1.6-2.9
		c0.2-0.4,0.5-0.6,0.8-0.6c0.5,0,0.8,0.4,0.8,0.8c0,0.2,0,0.3-0.1,0.5l-2.2,3.9v2.5c0,0.6-0.4,1-0.9,1
		C240.2,58,239.8,57.7,239.8,57.1z"/>
	<path d="M249.1,50.4c0-0.7,0.4-1.1,1-1.1c0.5,0,0.9,0.3,1.2,0.9l2.6,4.7h0.1v-4.7c0-0.6,0.3-0.9,0.8-0.9c0.5,0,0.8,0.3,0.8,0.9v6.7
		c0,0.7-0.4,1.1-1,1.1c-0.5,0-0.9-0.3-1.2-0.9l-2.6-4.7h-0.1v4.7c0,0.6-0.3,0.9-0.8,0.9c-0.5,0-0.8-0.3-0.8-0.9V50.4z"/>
	<path d="M258,50.2c0-0.5,0.3-0.8,0.8-0.8h4.2c0.5,0,0.9,0.3,0.9,0.8c0,0.5-0.3,0.8-0.9,0.8h-3c0,0-0.1,0-0.1,0.1v1.7
		c0,0.1,0,0.1,0.1,0.1h2.4c0.5,0,0.8,0.3,0.8,0.8c0,0.5-0.3,0.8-0.8,0.8H260c0,0-0.1,0-0.1,0.1v1.8c0,0,0,0.1,0.1,0.1h3
		c0.5,0,0.9,0.3,0.9,0.8c0,0.5-0.3,0.8-0.9,0.8h-4.2c-0.5,0-0.8-0.3-0.8-0.8V50.2z"/>
	<path d="M271.8,57.1l-1.3-4.6h0l-1.3,4.6c-0.2,0.7-0.5,1-1,1c-0.5,0-0.8-0.3-1-1l-1.8-6.5c0-0.1,0-0.3,0-0.4c0-0.5,0.4-0.9,0.9-0.9
		c0.4,0,0.8,0.2,0.9,0.9l1.1,4.8h0l1.3-4.8c0.2-0.5,0.4-0.8,0.9-0.8c0.5,0,0.7,0.3,0.9,0.8l1.3,4.8h0l1.1-4.8
		c0.1-0.6,0.5-0.9,0.9-0.9c0.6,0,0.9,0.4,0.9,0.9c0,0.1,0,0.3-0.1,0.4l-1.8,6.5c-0.2,0.7-0.5,1-1,1C272.2,58,272,57.8,271.8,57.1z"
		/>
	<path d="M277.4,57.4c-0.3-0.2-0.4-0.5-0.4-0.8c0-0.5,0.4-0.8,0.8-0.8c0.2,0,0.4,0.1,0.5,0.2c0.7,0.4,1.2,0.6,1.8,0.6
		c0.9,0,1.4-0.4,1.4-1c0-0.5-0.3-0.8-1.3-1l-0.5-0.1c-1.8-0.2-2.7-1.1-2.7-2.6c0-1.6,1.2-2.6,3-2.6c0.9,0,1.9,0.3,2.4,0.6
		c0.3,0.2,0.4,0.4,0.4,0.7c0,0.5-0.4,0.8-0.8,0.8c-0.2,0-0.4-0.1-0.5-0.1c-0.4-0.2-0.9-0.4-1.5-0.4c-0.8,0-1.2,0.4-1.2,0.9
		c0,0.5,0.3,0.8,1.3,1l0.5,0.1c1.8,0.3,2.7,1,2.7,2.6c0,1.6-1.1,2.7-3.4,2.7C278.8,58.1,277.9,57.7,277.4,57.4z"/>
</g>
</svg>
